<?xml version="1.0" standalone="no"?>
<!DOCTYPE svg PUBLIC "-//W3C//DTD SVG 1.1//EN" "http://www.w3.org/Graphics/SVG/1.1/DTD/svg11.dtd" >
<svg xmlns="http://www.w3.org/2000/svg">
<metadata></metadata>
<defs>
<font id="petitalightregular" horiz-adv-x="681" >
<font-face units-per-em="2048" ascent="1638" descent="-410" />
<missing-glyph horiz-adv-x="569" />
<glyph horiz-adv-x="2048" />
<glyph horiz-adv-x="2048" />
<glyph horiz-adv-x="682" />
<glyph d="M61 1325q35 -104 115 -170q76 -63 164 -63q90 0 166 63.5t115 169.5h-84q-35 -72 -84 -104q-51 -33 -113 -33q-59 0 -113 35q-49 33 -82 102h-84z" />
<glyph d="M250 1122h180v181h-180v-181z" />
<glyph d="M164 1212q0 -74 51 -125t125 -51q76 0 127 51t51 125q0 72 -53 125q-51 51 -125 52q-74 0 -125 -51.5t-51 -125.5zM219 1212q0 51 35 86t86 35q49 0 88 -35q35 -35 35 -86q0 -53 -37 -86q-35 -35 -86 -34q-51 0 -86 34.5t-35 85.5z" />
<glyph unicode="&#xa;" d="M135 1067h70l309 319h-166zM408 1067h69q39 43 77 83t75 77l76.5 76.5t80.5 82.5h-165z" />
<glyph d="M199 -176q0 -82 57 -127q53 -45 137 -45l84 10v78l-37 -2q-29 -2 -52 6t-44 23q-39 25 -39 88q0 47 39 92q39 49 70 73h-68q-68 -27 -110 -81q-37 -53 -37 -115z" />
<glyph d="M59 1384l222 -335h118l224 335h-78l-205 -221l-203 221h-78z" />
<glyph unicode="&#xd;" horiz-adv-x="385" d="M143 0h99v920h-99v-920z" />
<glyph horiz-adv-x="276" d="M-440 -55h80l1077 1470h-82z" />
<glyph horiz-adv-x="980" d="M23 840h170v-840h98v840h192v80h-192v131q0 141 59 213q57 70 168 69q102 0 158 -43q55 -45 63 -133h76h23q-12 141 -99 199q-88 59 -217 59q-152 0 -241 -96q-88 -94 -88 -268v-131h-170v-80zM739 0h99v920h-99v-920z" />
<glyph horiz-adv-x="980" d="M27 840h170v-840h98v840h190v80h-190v167q0 98 51 164q51 68 154 68q47 0 88 -14q23 -6 36 -10.5t19 -6.5v96l-43 17q-37 14 -90 14q-137 0 -227 -90q-86 -90 -86 -235v-170h-170v-80zM739 0h99v1397h-99v-1397z" />
<glyph horiz-adv-x="960" d="M-86 328l248 202v-530h799v90h-691v528l342 279v107l-342 -279v672h-108v-760l-248 -203v-106z" />
<glyph horiz-adv-x="385" d="M-55 424l198 166v-590h99v672l204 170v98l-204 -170v627h-99v-709l-198 -166v-98z" />
<glyph horiz-adv-x="1300" d="M18 31l11 -31h1222v90h-1054l1048 1268l-10 39h-1169v-90h999zM369 1831l221 -336h119l223 336h-78l-205 -221l-203 221h-77z" />
<glyph horiz-adv-x="811" d="M20 31l11 -31h757v90h-604l604 799l-8 31h-727v-91h576zM129 1384l221 -335h119l223 335h-78l-204 -221l-203 221h-78z" />
<glyph unicode=" "  horiz-adv-x="569" />
<glyph unicode="&#x09;" horiz-adv-x="569" />
<glyph unicode="&#xa0;" horiz-adv-x="569" />
<glyph unicode="!" horiz-adv-x="362" d="M115 0h133v199h-133v-199zM115 1397l35 -1004h63l35 1004h-133z" />
<glyph unicode="&#x22;" horiz-adv-x="569" d="M78 1169l24 -247h86l25 245v234h-135v-232zM358 1169l25 -247h86l25 245v234h-136v-232z" />
<glyph unicode="#" horiz-adv-x="1351" d="M158 430h170l-88 -430h96l88 430h385l-88 -430h96l88 430h289v94h-268l80 391h188v95h-168l86 420h-96l-86 -420h-385l86 420h-96l-86 -420h-291v-95h270l-80 -391h-190v-94zM444 524l80 391h385l-80 -391h-385z" />
<glyph unicode="$" horiz-adv-x="1067" d="M82 145q68 -63 188 -116q47 -23 100.5 -34t112.5 -15v-220h99v220q154 14 264 104q129 107 129 254q0 156 -96.5 240t-337.5 157q-174 53 -260 115q-82 55 -82 162q0 106 94 176q96 72 229 72q129 0 230 -48q47 -23 88 -46t73 -50v113q-59 47 -155 86q-70 29 -178 39 l2 164h-99l-2 -164q-152 -12 -262 -105q-127 -102 -127 -250q0 -150 94 -225q92 -74 295 -133q193 -57 293 -123q96 -66 96 -182q0 -109 -96 -186q-94 -76 -235 -76q-94 0 -217 47q-59 23 -120 57.5t-120 79.5v-113z" />
<glyph unicode="%" horiz-adv-x="1429" d="M39 1087q0 -133 96 -233q96 -96 234 -96q135 0 233 98q96 96 96 231t-96 231.5t-233 96.5q-133 0 -234 -96q-96 -96 -96 -232zM92 -23h105l1126 1430h-104zM127 1090q0 96 72 167q70 70 174 70q96 0 168 -72q69 -70 69 -172q0 -96 -71 -168q-70 -70 -168 -69 q-100 0 -172 71.5t-72 172.5zM731 301q0 -135 98 -229q96 -96 232 -97q135 0 235 97q97 96 97 229q0 135 -99 231q-96 96 -233 97q-133 0 -234 -97q-96 -96 -96 -231zM819 303q0 96 74 168q70 70 172 70q98 0 170 -72q70 -74 70 -172q0 -94 -72 -166q-72 -68 -170 -68 q-100 0 -172 72q-72 68 -72 168z" />
<glyph unicode="&#x26;" horiz-adv-x="1259" d="M53 315q0 -133 92.5 -233t272.5 -100q162 0 287 71q100 59 192 170l213 -223h137l-289 303q51 68 99 160q57 113 98 233h-115q-20 -59 -42.5 -110t-45.5 -94q-14 -27 -30.5 -55.5t-36.5 -57.5l-316 332q119 57 199 141q94 94 94 231q0 135 -94 211q-90 76 -217 76 q-131 0 -227 -88q-98 -86 -99 -211q0 -90 45 -166q45 -80 111 -145l20 -21q-145 -55 -245 -166q-102 -115 -103 -258zM170 334q0 117 86 196.5t217 135.5l352 -369q-86 -106 -176 -160q-96 -55 -213 -55q-121 0 -192 63q-74 63 -74 189zM330 1073q0 92 69 144q72 53 154 53 t147 -56q62 -53 62 -141q0 -90 -76 -170q-66 -66 -188 -117l-21 21q-29 29 -55.5 61.5t-48.5 67.5q-43 70 -43 137z" />
<glyph unicode="'" horiz-adv-x="454" d="M160 1169l24 -247h86l25 245v234h-135v-232z" />
<glyph unicode="(" d="M164 473q0 -324 129 -559q125 -233 268 -365h105q-160 137 -279 379q-119 240 -119 545q0 299 121 545q121 244 277 379h-105q-139 -129 -270 -367q-127 -238 -127 -557z" />
<glyph unicode=")" d="M12 -451h105q141 127 272 367q129 235 129 557t-129 559q-129 236 -272 365h-105q160 -135 281 -379q121 -246 121 -545t-121 -545q-121 -244 -281 -379z" />
<glyph unicode="*" horiz-adv-x="960" d="M94 838l51 -93q39 31 68 51.5t61.5 41t74.5 47t106 67.5q-4 -76 -6.5 -124t-5.5 -87t-6 -73.5t-9 -83.5h102q-6 49 -9 83.5t-6 73.5t-5 87.5t-6 123.5q63 -41 105 -67.5t75 -47t61.5 -41t67.5 -51.5l51 93q-45 18 -77.5 32.5t-66.5 32t-77 40t-111 56.5q68 35 111 57.5 t77 40t66.5 32t77.5 32.5l-51 92q-39 -31 -67.5 -51t-61.5 -40.5t-75 -47.5t-105 -67q4 76 6 124t5 86.5t6 73.5t9 84h-102q6 -49 9 -84t6 -73.5t5.5 -87t6.5 -123.5q-63 41 -105.5 67.5t-75 47t-61.5 41t-68 50.5l-51 -92q45 -18 78 -32.5t66.5 -32t76.5 -40t111 -57.5 q-68 -35 -111 -57t-76.5 -39.5t-66.5 -32t-78 -32.5z" />
<glyph unicode="+" horiz-adv-x="1351" d="M139 678h492v-492h90v492h491v90h-491v485h-90v-485h-492v-90z" />
<glyph unicode="," horiz-adv-x="362" d="M94 -168v-72q29 23 64 51.5t53 67.5q37 76 37 156v164h-133v-199h43q0 -74 -15 -109q-6 -18 -23.5 -33.5t-25.5 -25.5z" />
<glyph unicode="-" horiz-adv-x="641" d="M78 463h485v96h-485v-96z" />
<glyph unicode="." horiz-adv-x="362" d="M115 0h131v201h-131v-201z" />
<glyph unicode="/" horiz-adv-x="575" d="M6 -18h96l451 1433h-96z" />
<glyph unicode="0" horiz-adv-x="1024" d="M66 692q0 -311 120 -512q119 -199 326 -198q205 0 328 198q121 201 121 512v13q0 311 -121 512q-119 199 -326 198q-205 0 -328 -198q-121 -201 -120 -512v-13zM172 690v17q0 260 96 436q94 174 244 174q154 0 248 -174q94 -178 94 -436v-17q0 -260 -96 -436 q-94 -174 -244 -174q-154 0 -248 174t-94 436z" />
<glyph unicode="1" horiz-adv-x="686" d="M39 911l72 -73l309 309v-1147h106v1397h-106v-107z" />
<glyph unicode="2" horiz-adv-x="1024" d="M92 1163q70 66 144 111q76 43 174 43q135 0 223 -88q90 -90 90 -221q0 -121 -51 -236q-27 -59 -57.5 -117.5t-71.5 -117.5q-102 -150 -207 -265q-49 -55 -105.5 -116.5t-121.5 -126.5v-29h854v96h-650q45 51 87 101.5t83 101.5q39 51 76 103.5t76 105.5q29 41 61.5 97.5 t67.5 127.5q66 147 65 277q0 172 -118 288q-117 117 -293 117q-117 0 -199 -45q-88 -45 -127 -82v-125z" />
<glyph unicode="3" horiz-adv-x="1024" d="M139 51q37 -18 129 -45q88 -25 189 -24q186 0 305 112q117 113 117 299q0 121 -72 215q-72 90 -203 133q139 47 199 133q59 88 59 185q0 156 -114 258q-115 98 -291 98q-121 0 -201 -35q-78 -35 -104 -55v-100q14 10 38.5 23.5t63.5 31.5q76 37 188 37q137 0 228 -78 q88 -76 88 -186q0 -117 -99 -193q-96 -76 -233 -76h-12v-98h20q82 0 144.5 -23.5t107.5 -64.5q88 -82 88 -221q0 -133 -92 -215q-88 -82 -236 -82q-100 0 -184 22q-39 10 -69.5 22.5t-53.5 22.5v-96z" />
<glyph unicode="4" horiz-adv-x="1024" d="M29 539h639v-539h104v539h193v84h-193v792h-41l-702 -842v-34zM174 623l494 596v-596h-494z" />
<glyph unicode="5" horiz-adv-x="1024" d="M84 74q43 -27 135 -60q90 -33 209 -32q193 0 320 127q122 124 122 325q0 197 -125 316q-63 59 -144 89.5t-185 26.5l-119 -6v440h494v97h-592v-652q20 6 41.5 11.5t44.5 9.5q41 8 96 8q178 0 282.5 -92t104.5 -252q0 -154 -98 -252q-96 -98 -248 -98q-106 0 -201 43 q-47 20 -81 37.5t-56 34.5v-121z" />
<glyph unicode="6" horiz-adv-x="1024" d="M125 477q0 -240 123 -368q121 -127 301 -127q168 0 282.5 108t114.5 270q0 178 -110 287q-109 109 -287 109q-90 0 -172 -35q-76 -31 -133 -78q39 174 131 309q150 219 393 389l-61 74q-227 -158 -404 -399q-178 -244 -178 -539zM225 463v31q0 16 2 30q31 35 111 82 q84 51 203 51q131 0 217 -86q84 -84 84 -215q0 -119 -86 -198q-88 -78 -213 -78q-129 0 -226 102q-92 100 -92 281z" />
<glyph unicode="7" horiz-adv-x="1024" d="M59 1300h762l-577 -1280l88 -38l639 1415h-912v-97z" />
<glyph unicode="8" horiz-adv-x="1024" d="M115 379q0 -166 116 -283q115 -115 281 -114q170 0 284.5 114.5t114.5 286.5q0 117 -59 207q-59 88 -147 135q92 68 135 143q43 74 43 176q0 152 -107 261q-109 111 -254 110q-162 0 -270.5 -108.5t-108.5 -268.5q0 -82 41 -164q39 -78 142 -149q-94 -49 -154 -139 q-57 -88 -57 -207zM219 377q0 129 84 213t213 84q121 0 207 -86q84 -88 84 -209q0 -125 -84 -213q-84 -86 -207 -86q-127 0 -213 86q-84 84 -84 211zM248 1032q0 127 73.5 205t192.5 78q113 0 191 -78q73 -78 73 -199q0 -111 -77.5 -188.5t-186.5 -77.5q-106 0 -188 78 q-78 78 -78 182z" />
<glyph unicode="9" horiz-adv-x="1024" d="M66 1024q0 -160 112 -270q115 -109 279 -109q96 0 190 41q70 33 121 68q-20 -92 -54 -172t-87 -152q-78 -106 -175.5 -198.5t-213.5 -174.5l57 -75q322 236 461 467q135 229 135 460q0 250 -123 379q-121 127 -311 127q-168 0 -281 -110q-111 -111 -110 -281zM170 1024 q0 125 84 209t207 84q150 0 235.5 -96t85.5 -299v-25q0 -10 -2 -20q-39 -41 -116 -84q-90 -49 -203 -50q-119 0 -207 84q-84 84 -84 197z" />
<glyph unicode=":" horiz-adv-x="362" d="M115 0h131v201h-131v-201zM115 721h131v201h-131v-201z" />
<glyph unicode=";" horiz-adv-x="362" d="M94 -168v-72q29 23 64 51.5t53 67.5q37 76 37 156v164h-133v-199h43q0 -74 -15 -109q-6 -18 -23.5 -33.5t-25.5 -25.5zM115 721h131v201h-131v-201z" />
<glyph unicode="&#x3c;" horiz-adv-x="1351" d="M139 676l1073 -451v101l-950 393l950 393v100l-1073 -450v-86z" />
<glyph unicode="=" horiz-adv-x="1351" d="M139 426h1073v90h-1073v-90zM139 922h1073v90h-1073v-90z" />
<glyph unicode="&#x3e;" horiz-adv-x="1351" d="M139 225l1073 451v86l-1073 450v-100l948 -393l-948 -393v-101z" />
<glyph unicode="?" horiz-adv-x="575" d="M55 1358l35 -88q4 2 28.5 15t59.5 28.5t55 15.5q68 0 113 -57q43 -55 43 -135q0 -90 -41 -176q-41 -84 -110 -197q-49 -80 -70 -135q-16 -55 -16 -113q0 -47 26 -98q23 -47 53 -80l35 31q-14 27 -21 46t-12 29q-2 10 -3 22.5t-1 25.5q0 47 15 90q14 45 61 112 q102 147 146 232q43 85 43 200q0 117 -64 205q-66 86 -194 86q-49 0 -84 -14q-10 -4 -35 -15.5t-42.5 -19.5t-19.5 -10zM174 0h133v199h-133v-199z" />
<glyph unicode="@" horiz-adv-x="1638" d="M182 551q0 -270 184.5 -473t479.5 -203q209 0 379 100q170 99 225 203h-78q-59 -90 -207 -166q-147 -74 -331 -73q-227 0 -406 170q-180 168 -180 434q0 258 174 434q176 176 414 176q223 0 374.5 -147.5t151.5 -341.5q0 -184 -105 -320q-104 -133 -198 -133q-8 0 -23 22 q-6 8 -6 33q0 18 6 49l127 594h-96l-25 -125q-29 78 -100 117q-70 39 -129 39q-180 0 -291 -149q-109 -152 -108 -318q0 -162 82 -246q80 -86 188 -86q82 0 154 47q68 45 100 95q12 -84 37 -115q27 -31 53 -31q141 0 268 156q127 152 127 366q0 225 -165.5 391.5 t-426.5 166.5q-270 0 -460 -201q-188 -201 -189 -465zM512 467q0 147 82 274q88 131 211 131q92 0 145 -67q56 -68 56 -166q0 -53 -22.5 -119.5t-63.5 -144.5q-86 -160 -218 -160q-68 0 -129 64q-61 61 -61 188z" />
<glyph unicode="A" horiz-adv-x="1366" d="M8 0h113l221 483h682l221 -483h111l-643 1407h-60zM383 573l299 658l301 -658h-600z" />
<glyph unicode="B" horiz-adv-x="1087" d="M164 0h407q219 0 344 100q125 99 125 279q0 145 -92 235q-88 86 -231 111q104 55 153.5 131t49.5 176q0 174 -121 271q-119 94 -332 94h-303v-1397zM272 90v569h244q197 0 305 -71q105 -72 105 -219q0 -133 -101 -207q-102 -72 -274 -72h-279zM272 750v557h158 q184 0 278.5 -70t94.5 -215q0 -133 -96 -205q-95 -67 -266 -67h-5h-164z" />
<glyph unicode="C" horiz-adv-x="1386" d="M100 698q0 -317 215 -516q212 -200 544 -200h3q121 0 250 38q66 20 124 43t105 52v112q-47 -27 -101 -52t-120 -48q-127 -45 -276 -45q-279 0 -453 172t-174 444q0 264 178 441q176 176 443 176q135 0 258 -39q131 -41 229 -98v120q-102 53 -231 86q-129 31 -238 31 q-324 0 -541 -205q-215 -207 -215 -512z" />
<glyph unicode="D" horiz-adv-x="1515" d="M162 0h512q348 0 542.5 194.5t194.5 501.5q0 326 -203 514q-203 186 -549 187h-497v-1397zM270 90v1217h379q293 0 469 -168q176 -171 176 -443q0 -274 -178 -440t-471 -166h-375z" />
<glyph unicode="E" horiz-adv-x="1003" d="M164 0h778v90h-670v567l637 2v89h-637v559h656v90h-764v-1397z" />
<glyph unicode="F" horiz-adv-x="897" d="M160 0h108v686h551v90h-551v531h615v90h-723v-1397z" />
<glyph unicode="G" horiz-adv-x="1472" d="M102 702q0 -311 217 -516q212 -204 540 -204h3q137 0 271 34q127 35 223 84v535h-402v-90h295v-377q-53 -31 -155 -59q-98 -27 -217 -27q-295 0 -478 170q-180 168 -180 448q0 264 178 441q180 174 445 174q131 0 254 -39q121 -35 235 -102v122q-57 33 -194 76 q-135 43 -295 43q-317 0 -529 -205q-211 -203 -211 -508z" />
<glyph unicode="H" horiz-adv-x="1472" d="M162 0h108v662h930v-662h109v1397h-109v-645h-930v645h-108v-1397z" />
<glyph unicode="I" horiz-adv-x="425" d="M160 0h106v1397h-106v-1397z" />
<glyph unicode="J" horiz-adv-x="425" d="M-92 -301l10 -102l70 -5q8 -1 16 -1q54 0 100 24q52 27 93 74q82 94 82 297v1411h-109v-1389q0 -154 -49 -235q-45 -82 -148 -82z" />
<glyph unicode="K" horiz-adv-x="1087" d="M156 0h108v700l731 -700h138l-730 700l666 697h-135l-670 -697v697h-108v-1397z" />
<glyph unicode="L" horiz-adv-x="960" d="M162 0h799v90h-691v1307h-108v-1397z" />
<glyph unicode="M" horiz-adv-x="1599" d="M158 0h108v1243l533 -657l530 657v-1243h109v1397h-109l-530 -649l-533 649h-108v-1397z" />
<glyph unicode="N" horiz-adv-x="1579" d="M160 0h108v1221l1061 -1221h92v1397h-108v-1225q-133 160 -264 311.5t-266.5 301t-266.5 301t-264 311.5h-92v-1397z" />
<glyph unicode="O" horiz-adv-x="1685" d="M104 698q0 -305 213 -512q210 -204 524 -204h3q313 0 526 206.5t213 509.5q0 305 -213 512q-215 205 -526 205q-315 0 -529 -207q-211 -205 -211 -510zM221 698q0 254 182 437q180 180 441 180q260 0 440 -180q182 -183 182 -437t-182 -436q-180 -180 -440 -180 q-262 0 -442.5 180t-180.5 436z" />
<glyph unicode="P" horiz-adv-x="1044" d="M160 0h108v653h277q213 0 333.5 96.5t120.5 274.5q0 182 -116 279q-117 94 -328 94h-395v-1397zM268 743v564h281q156 0 246 -76q90 -74 90 -205q0 -137 -92 -211q-90 -72 -256 -72h-269z" />
<glyph unicode="Q" horiz-adv-x="1685" d="M104 698q0 -307 211 -512q176 -172 451 -200q166 -147 354 -211q199 -68 281 -68l-8 111l-29 3t-71 9t-88 16.5t-79 24.5q-57 23 -109 51.5t-99 61.5q272 29 452 202q213 207 213 512q0 307 -213 512q-104 104 -236.5 154.5t-289.5 50.5q-315 0 -529 -207 q-211 -205 -211 -510zM221 698q0 254 182 437q180 180 441 180q260 0 440 -180q182 -183 182 -437t-182 -436q-180 -180 -440 -180q-262 0 -442.5 180t-180.5 436z" />
<glyph unicode="R" horiz-adv-x="1173" d="M162 0h108v670h213q143 0 217 -84q37 -41 73 -92.5t73 -110.5l246 -383h127l-263 401q-29 43 -57.5 86t-60.5 88q-63 86 -119 121q102 33 184 119q80 82 80 217q0 176 -123 273q-123 92 -346 92h-352v-1397zM270 760v547h242q164 0 260 -72q94 -70 94 -201 q0 -133 -96 -205q-93 -69 -263 -69h-5h-232z" />
<glyph unicode="S" horiz-adv-x="960" d="M94 1051q0 -152 80 -232q78 -80 250 -139q168 -57 254 -127q82 -68 82 -193q0 -119 -86 -198.5t-213 -79.5q-80 0 -162 37q-41 18 -88 46t-98 66v-127q23 -16 58.5 -35.5t86.5 -41.5q98 -45 221 -45q162 0 278.5 110t116.5 262q0 160 -77 248q-76 84 -289 162 q-160 59 -229 119q-68 57 -68 172q0 106 86 184q82 76 207 76q104 0 184 -39q41 -20 75 -36.5t56 -31.5l-2 119q-10 8 -38.5 21.5t-76.5 31.5q-94 35 -210 35q-160 0 -281 -108q-117 -109 -117 -256z" />
<glyph unicode="T" horiz-adv-x="1173" d="M8 1307h524v-1307h109v1307h524v90h-1157v-90z" />
<glyph unicode="U" horiz-adv-x="1429" d="M131 596q0 -270 164 -444q164 -170 422 -170t422 176q161 178 161 448v791h-108v-783q0 -244 -129 -387q-127 -145 -344 -145q-219 0 -350 141q-129 141 -129 381v793h-109v-801z" />
<glyph unicode="V" horiz-adv-x="1216" d="M6 1397l588 -1411h31l589 1411h-112l-492 -1182l-495 1182h-109z" />
<glyph unicode="W" horiz-adv-x="2111" d="M-2 1397l561 -1411h29l469 1179l469 -1179h26l559 1411h-108l-463 -1159l-467 1159h-33l-469 -1157l-462 1157h-111z" />
<glyph unicode="X" horiz-adv-x="1409" d="M0 0h139l566 639l565 -639h141l-637 715l600 682h-139l-530 -602l-533 602h-139l600 -682z" />
<glyph unicode="Y" horiz-adv-x="1193" d="M0 1397l543 -647v-750h108v750l543 647h-131l-465 -553l-467 553h-131z" />
<glyph unicode="Z" horiz-adv-x="1300" d="M18 31l11 -31h1222v90h-1054l1048 1268l-10 39h-1169v-90h999z" />
<glyph unicode="[" horiz-adv-x="618" d="M141 -451h463v97h-364v1654h364v97h-463v-1848z" />
<glyph unicode="\" horiz-adv-x="575" d="M27 1415l448 -1433h94l-448 1433h-94z" />
<glyph unicode="]" horiz-adv-x="618" d="M14 -354v-97h463v1848h-463v-97h365v-1654h-365z" />
<glyph unicode="^" horiz-adv-x="1351" d="M227 881l64 -58l385 461l387 -461l63 58l-444 528h-12z" />
<glyph unicode="_" horiz-adv-x="1024" d="M-12 -520v-103h1050v103h-1050z" />
<glyph unicode="`" d="M158 1386l313 -319h66l-213 319h-166z" />
<glyph unicode="a" horiz-adv-x="1044" d="M76 434q0 -199 125 -325q127 -127 319 -127q88 0 158 20q76 20 137 49v-55h98v924h-96v-64q-66 39 -139 62q-68 20 -137 20q-205 0 -336 -141q-129 -141 -129 -363zM180 436q0 176 108.5 291t272.5 115q86 0 158 -31q72 -33 98 -51v-606q-45 -29 -117 -58 q-65 -24 -154 -24h-7q-162 0 -260 100q-98 98 -99 264z" />
<glyph unicode="b" horiz-adv-x="1044" d="M127 1397l2 -1346q63 -29 150 -51q80 -18 163 -18q244 0 383.5 139t139.5 362q0 207 -113 332q-115 123 -301 123q-88 0 -170 -37q-82 -33 -156 -117v613h-98zM225 123v559q23 27 54.5 54.5t72.5 58.5q82 61 197 61q137 0 225 -106q88 -111 88 -271q0 -170 -117 -286 q-119 -115 -288 -115q-82 0 -148 16q-59 14 -84 29z" />
<glyph unicode="c" horiz-adv-x="854" d="M86 459q0 -219 123 -348t338 -129q78 0 149 18q35 10 59 17.5t38 11.5v102q-37 -16 -101 -35q-66 -18 -141 -18q-170 0 -264 104q-96 102 -97 277q0 168 97 276q94 106 252 107q82 0 137 -21q29 -10 54.5 -18t45.5 -19v109q-29 10 -56.5 17.5t-55.5 15.5q-59 12 -127 12 q-207 0 -330 -141q-121 -139 -121 -338z" />
<glyph unicode="d" horiz-adv-x="1044" d="M84 459q0 -203 135 -340t332 -137q80 0 141 20q61 23 131 70v-72h99v1397h-99v-533q-39 25 -116 51q-74 23 -142 23q-215 0 -348 -133t-133 -346zM188 459q0 168 105 276q100 106 266 107q90 0 158 -31q72 -33 104 -57v-592q-10 -8 -30.5 -21.5t-53.5 -29.5 q-59 -33 -164 -33q-166 0 -276 110q-109 109 -109 271z" />
<glyph unicode="e" horiz-adv-x="980" d="M82 473q0 -215 133 -354q131 -137 340 -137q109 0 201 41q45 20 78.5 40.5t60.5 40.5v111q-20 -18 -53 -39.5t-78 -48.5q-90 -49 -201 -49q-162 0 -270 108q-109 104 -109 267v22t2 19h727q0 193 -114 319q-113 125 -293 125q-186 0 -305 -135q-119 -133 -119 -330z M197 573q29 100 75 160q88 109 236 109q123 0 194 -72q68 -68 91 -197h-596z" />
<glyph unicode="f" horiz-adv-x="491" d="M23 840h170v-840h98v840h178v80h-178v120q0 143 55 211t162 68q57 0 113 -16q25 -8 40 -12.5t19 -6.5v92q-10 8 -59 23q-53 16 -107 16q-141 0 -231 -96t-90 -248v-151h-170v-80z" />
<glyph unicode="g" horiz-adv-x="1044" d="M76 434q0 -199 125 -325q127 -127 319 -127q88 0 158 20q76 20 137 49v-239q0 -33 -25.5 -63t-62.5 -53.5t-78 -36.5t-69 -13q-72 0 -136 41q-29 20 -52 53t-44 74l-102 -2q43 -127 135 -205q90 -76 199 -76q49 0 107 23.5t109.5 63.5t85 90.5t33.5 103.5h-2v1108h-96 v-64q-66 39 -139 62q-68 20 -137 20q-205 0 -336 -141q-129 -141 -129 -363zM180 436q0 176 108.5 291t272.5 115q86 0 158 -31q72 -33 98 -51v-606q-45 -29 -117 -58q-65 -24 -154 -24h-7q-162 0 -260 100q-98 98 -99 264z" />
<glyph unicode="h" horiz-adv-x="1003" d="M127 0h98v649q51 78 119 135q70 57 182 58q123 0 189 -84q63 -86 63 -234v-524h99v555q0 180 -95 281q-96 102 -256 102q-90 0 -161 -41q-70 -39 -140 -145v645h-98v-1397z" />
<glyph unicode="i" horiz-adv-x="385" d="M143 0h99v920h-99v-920zM143 1229h99v168h-99v-168z" />
<glyph unicode="j" horiz-adv-x="385" d="M-57 -387l26 -84q96 0 183 86q86 81 86 319v986h-99v-1016q0 -164 -49 -228q-51 -63 -139 -63h-8zM139 1229h99v168h-99v-168z" />
<glyph unicode="k" horiz-adv-x="874" d="M121 0h98v483v914h-98v-1397zM233 483l582 -483h133l-581 483l503 437h-129z" />
<glyph unicode="l" horiz-adv-x="385" d="M143 0h99v1397h-99v-1397z" />
<glyph unicode="m" horiz-adv-x="1579" d="M123 0h98v647q25 39 52.5 74t60.5 63q68 57 168 58q117 0 178 -84q59 -84 59 -234v-524h99v627q45 74 112 145q68 70 158 70q117 0 182 -84q63 -82 64 -234v-524h98v555q0 170 -82 276q-80 106 -215 107h-25q-119 0 -196 -72q-80 -74 -119 -147q-57 129 -129 174 q-70 45 -147 45h-25q-88 0 -160 -41q-70 -41 -135 -145v168h-96v-920z" />
<glyph unicode="n" horiz-adv-x="1003" d="M127 0h98v649q51 78 119 135q70 57 182 58q123 0 189 -84q63 -86 63 -234v-524h99v555q0 180 -95 281q-96 102 -256 102q-92 0 -164 -41q-70 -39 -139 -145v168h-96v-920z" />
<glyph unicode="o" horiz-adv-x="1110" d="M86 459q0 -203 135 -340q131 -137 334 -137q201 0 336 137q133 139 133 340q0 203 -135 342q-131 137 -334 137q-201 0 -336 -137q-133 -139 -133 -342zM190 459q0 160 107 272q106 111 258 111t258 -113q107 -108 107 -270q0 -158 -107 -271q-108 -110 -255 -110h-3 q-152 0 -258 112q-106 109 -107 269z" />
<glyph unicode="p" horiz-adv-x="1044" d="M129 -471h98v522q35 -16 69 -29.5t69 -23.5q72 -16 149 -16q184 0 315.5 143t131.5 336q0 211 -132 344q-133 133 -335 133q-66 0 -136 -18q-74 -18 -129 -52v52h-100v-1391zM227 145v631q14 8 37 18.5t55 22.5q61 25 150 25q164 0 274 -111q109 -108 109 -272 q0 -166 -102 -275q-100 -106 -269 -106q-88 0 -151 24q-59 20 -103 43z" />
<glyph unicode="q" horiz-adv-x="1044" d="M76 434q0 -199 125 -325q127 -127 319 -127q88 0 158 20q76 20 137 49v-522h98v1391h-96v-64q-66 39 -139 62q-68 20 -137 20q-205 0 -336 -141q-129 -141 -129 -363zM180 436q0 176 108.5 291t272.5 115q86 0 158 -31q72 -33 98 -51v-606q-45 -29 -117 -58 q-65 -24 -154 -24h-7q-162 0 -260 100q-98 98 -99 264z" />
<glyph unicode="r" d="M129 0h98v580q41 74 125 165q86 96 172 97q39 0 86 -29q23 -14 46.5 -32.5t50.5 -43.5l57 90q-14 18 -78 64q-66 47 -133 47q-41 0 -83 -8t-85 -43q-41 -35 -81 -74t-77 -100v207h-98v-920z" />
<glyph unicode="s" horiz-adv-x="724" d="M84 66q37 -23 106 -56q72 -30 169 -30h6q127 0 210 75q87 77 87 183q0 111 -76 172q-80 63 -195 102q-90 33 -151 74q-55 39 -56 106q0 63 56 111q51 45 147 45q66 0 133 -29q33 -14 60.5 -30.5t52.5 -34.5v104q-31 27 -98 53q-35 12 -73 19.5t-83 7.5q-111 0 -201 -72 q-88 -70 -88 -176q0 -98 62 -155q63 -61 176 -101q150 -55 196 -98q43 -43 43 -96q0 -74 -57 -119q-59 -43 -145 -43q-72 0 -150 26q-78 25 -131 60v-98z" />
<glyph unicode="t" horiz-adv-x="618" d="M-51 840h248v-654q0 -96 57 -151q59 -53 158 -53q53 0 96 12q23 6 45 14.5t47 18.5v96q-43 -20 -84 -32.5t-78 -12.5q-88 0 -116 35q-27 33 -27 141v586h258v80h-258v305h-31l-67 -45v-260h-248v-80z" />
<glyph unicode="u" horiz-adv-x="1003" d="M127 352q0 -180 96 -276q94 -94 269 -94q76 0 151 41q72 39 135 137v-160h99v920h-99v-644q-35 -68 -114 -133q-77 -65 -182 -65h-3q-121 0 -188 78q-66 78 -66 217v547h-98v-568z" />
<glyph unicode="v" horiz-adv-x="874" d="M0 920l418 -938h61l395 938h-96l-332 -775l-346 775h-100z" />
<glyph unicode="w" horiz-adv-x="1449" d="M0 920l393 -938h45l285 747l283 -747h47l395 938h-96l-320 -750l-289 750h-45l-288 -750l-314 750h-96z" />
<glyph unicode="x" horiz-adv-x="980" d="M12 0h127l361 403l360 -403h125l-420 471l422 449h-127l-360 -381l-361 381h-127l420 -449z" />
<glyph unicode="y" horiz-adv-x="854" d="M10 920l389 -744l-321 -647h100l686 1391h-100l-315 -644l-332 644h-107z" />
<glyph unicode="z" horiz-adv-x="811" d="M20 31l11 -31h757v90h-604l604 799l-8 31h-727v-91h576z" />
<glyph unicode="{" d="M102 412q98 -16 144 -78q47 -66 47 -180v-297q0 -127 59.5 -217.5t208.5 -90.5h27v111h-33q-68 0 -109 41q-39 37 -38 143v258q0 162 -56 252q-55 84 -141 119q88 35 141 121q55 86 56 250v258q0 104 41 145q43 39 106 39h33v111h-27q-152 0 -211 -90q-57 -88 -57 -217 v-297q0 -115 -47 -181q-45 -61 -144 -77v-123z" />
<glyph unicode="|" horiz-adv-x="454" d="M176 -512h98v2048h-98v-2048z" />
<glyph unicode="}" d="M94 -340v-111h27q152 0 211 91q57 92 57 217v297q0 115 49 180q46 62 144 78v123q-98 16 -146 77q-47 66 -47 181v297q0 127 -59.5 217t-208.5 90h-27v-111h33q68 0 109 -41q39 -37 38 -143v-258q0 -164 58 -252q55 -84 141 -119q-86 -35 -143 -121q-55 -86 -56 -250 v-258q0 -104 -41 -145q-43 -39 -106 -39h-33z" />
<glyph unicode="~" horiz-adv-x="1351" d="M137 594q27 23 58.5 45.5t72.5 44.5q82 47 152 47q84 0 250 -82q168 -80 266 -80q96 0 180 56q41 27 65.5 43t32.5 22l3 113q-33 -23 -67 -45.5t-73 -44.5q-76 -47 -143 -47q-84 0 -250 82q-170 80 -266 79q-100 0 -182 -55q-41 -27 -66 -43t-33 -22v-113z" />
<glyph unicode="&#xa1;" horiz-adv-x="362" d="M115 -453h133l-35 1004h-63zM115 745h133v199h-133v-199z" />
<glyph unicode="&#xa2;" horiz-adv-x="854" d="M86 459q0 -219 123 -348q37 -37 92 -72l-149 -426h90l139 393q57 -25 166 -24q78 0 149 18q35 10 58.5 17.5t38.5 11.5v102q-37 -16 -101 -35q-66 -18 -141 -18q-86 0 -137 22l256 723q2 -2 6 -2q29 -10 54.5 -18t45.5 -19v109q-18 6 -36.5 12t-39.5 10l140 392h-90 l-134 -375q-35 6 -79 6q-207 0 -330 -141q-121 -139 -121 -338zM190 459q0 168 97 276q94 106 252 107h24q11 0 21 -2l-248 -703q-31 25 -49 43q-96 102 -97 279z" />
<glyph unicode="&#xa3;" horiz-adv-x="1130" d="M193 -10q35 6 70.5 12t74.5 12q39 4 82 7.5t92 3.5q90 0 221 -23q121 -20 170 -20q70 0 119 14.5t82 30.5v108q-27 -14 -51.5 -23.5t-46.5 -17.5q-41 -14 -101 -14q-23 0 -62.5 6t-99 16.5t-110.5 17.5t-96 3l-211 -14l137 520h246v96h-217l73 207q59 168 162 276 q51 53 113.5 84t138.5 25l53 -4l55 -13l-49 97l-92 18q-186 0 -311 -155q-63 -78 -104.5 -157t-67.5 -157l-74 -221h-196v-96h172q-4 0 -80 -291q-78 -289 -92 -301v-47z" />
<glyph unicode="&#xa4;" horiz-adv-x="1386" d="M16 457h142q53 -158 178 -275q213 -201 547 -200q121 0 250 38q66 20 124 43t105 52v112q-47 -27 -101.5 -52t-119.5 -48q-127 -45 -277 -45q-279 0 -452 172q-88 88 -133 203h1015v82h-1040q-16 78 -16 159q0 117 32 209h1024v82h-989q39 82 111 150q176 176 442 176 q135 0 258 -39q131 -41 230 -98v120q-102 53 -232 86q-129 31 -237 31q-324 0 -541 -205q-104 -102 -156 -221h-164v-82h134q-29 -102 -29 -209q0 -41 3 -82t11 -77h-119v-82z" />
<glyph unicode="&#xa5;" horiz-adv-x="1138" d="M4 1466l436 -725h-377v-96h435l8 -14v-142h-443v-96h443v-393h131v393h434v96h-434v142l8 14h426v96h-369l435 725h-144l-418 -725l-423 725h-148z" />
<glyph unicode="&#xa6;" horiz-adv-x="454" d="M176 358v-870h98v870h-98zM176 666h98v870h-98v-870z" />
<glyph unicode="&#xa7;" horiz-adv-x="811" d="M51 580q0 -100 51 -185q25 -43 61 -85t83 -83l188 -170q76 -70 115 -135q41 -66 41 -127q0 -88 -63.5 -133t-131.5 -45q-57 0 -108 35q-47 35 -62 102h-104q20 -123 100 -174q76 -51 166 -51q129 0 217 72q84 72 84 200q0 66 -28.5 129.5t-75.5 116.5q78 72 127 158 q47 88 47 160q0 100 -51 184q-47 84 -142 168l-190 170q-76 70 -115 135q-39 63 -39 127q0 88 64 133q59 45 129 45q57 0 108 -35q49 -37 64 -102h104q-20 121 -102 174q-76 51 -164 51q-129 0 -217 -72q-84 -72 -84 -200q0 -66 28.5 -129.5t75.5 -116.5q-78 -70 -129 -158 q-47 -88 -47 -159zM154 584q0 61 26 116q14 29 41 63t68 71l256 -234q16 -16 33.5 -39.5t37.5 -54.5q39 -57 39 -141q0 -61 -26 -117q-14 -29 -41 -62.5t-68 -70.5l-256 233q-16 16 -33.5 40t-37.5 54q-39 57 -39 142z" />
<glyph unicode="&#xa8;" d="M131 1143h139v139h-139v-139zM412 1143h139v139h-139v-139z" />
<glyph unicode="&#xa9;" horiz-adv-x="1638" d="M55 727q0 -315 223.5 -538.5t540.5 -223.5q315 0 538.5 223.5t223.5 540.5q0 315 -223 538.5t-541 223.5q-315 0 -538.5 -223.5t-223.5 -540.5zM152 729q0 274 196 471q195 195 471 195q274 0 471 -197q195 -195 195 -471q0 -274 -197 -471q-195 -195 -471 -195 q-274 0 -471 197q-195 195 -194 471zM438 733q0 -199 113 -319q111 -123 278 -123q115 0 205 71q92 74 125 191l-90 33q-27 -90 -92 -150q-66 -55 -154 -55q-137 0 -207 104q-72 106 -71 258q0 135 76 226q74 92 213 92q78 0 135 -45q57 -47 86 -121l96 25q-45 100 -125 161 q-82 63 -188 64q-180 0 -291 -119q-109 -119 -109 -293z" />
<glyph unicode="&#xaa;" horiz-adv-x="575" d="M47 969q0 -57 49 -97q47 -41 123 -41q43 0 98 23q47 18 84 51q0 -33 11 -53q8 -18 32 -18q29 0 68 22q18 10 31.5 18.5t23.5 16.5v49q-10 -6 -20 -13t-25 -16q-29 -18 -45 -20l-12 24v349q0 74 -51 112q-47 39 -140 39q-66 0 -122 -24q-57 -23 -72 -37v-60 q10 8 27.5 19.5t44.5 25.5q53 27 116 27t99 -27q35 -29 34 -90v-69q-82 -2 -125 -13q-20 -4 -39.5 -9t-39.5 -11q-61 -20 -107 -66q-43 -41 -43 -112zM111 973q0 51 39 84q43 37 92 51q31 10 55.5 14t40.5 6t33 2h30v-176q-14 -10 -31.5 -22t-39.5 -27q-43 -25 -99 -24 q-55 0 -90 28q-31 25 -30 64z" />
<glyph unicode="&#xab;" horiz-adv-x="1024" d="M41 473l387 -461h125l-387 461l383 461h-125zM475 473l387 -461h125l-387 461l383 461h-125z" />
<glyph unicode="&#xac;" horiz-adv-x="1376" d="M168 0h104v973l404 -494l-53 -51v-563l-283 291l-57 -56l594 -618l59 57l-285 295l594 2l76 74h-621l-4 565l406 498v-973h102v1128h-98l-418 -512l-420 512h-100v-1128zM463 1004l37 -72q29 23 46 35t36 24q16 10 37.5 23.5t52.5 34.5q-2 -39 -2 -66q0 -25 -1 -46.5 t-3 -42t-7 -50.5h76q-4 31 -5 51t-3 41.5t-3 47.5t-3 65q31 -20 52.5 -34t37.5 -24q18 -12 35.5 -24.5t46.5 -34.5l39 72q-29 10 -48.5 19t-39 18.5t-43 21.5t-56.5 31q33 16 56.5 28.5t43 21.5l39 18t48.5 20l-39 69q-29 -23 -47.5 -35t-34.5 -22q-16 -12 -37.5 -25.5 t-52.5 -31.5q2 37 3 62.5t3 47t3 43t5 51.5h-76q4 -31 6.5 -52t3.5 -42.5t1 -48.5q0 -25 2 -61q-31 18 -52.5 31.5t-37.5 25.5q-16 10 -35 22.5t-47 34.5l-37 -69q27 -10 47 -19.5t38.5 -18.5t41 -21.5t57.5 -28.5q-35 -18 -57.5 -30.5t-41 -22t-39 -18.5t-46.5 -19z" />
<glyph unicode="&#xad;" horiz-adv-x="641" d="M78 463h485v96h-485v-96z" />
<glyph unicode="&#xae;" horiz-adv-x="1638" d="M55 727q0 -315 223.5 -538.5t540.5 -223.5q315 0 538.5 223.5t223.5 540.5q0 315 -223 538.5t-541 223.5q-315 0 -538.5 -223.5t-223.5 -540.5zM152 729q0 274 196 471q195 195 471 195q274 0 471 -197q195 -195 195 -471q0 -274 -197 -471q-195 -195 -471 -195 q-274 0 -471 197q-195 195 -194 471zM512 317h98v353h78q123 0 190.5 -82t145.5 -271h123l-57 129q-16 35 -32 68t-38 66q-39 63 -133 104q111 12 168 74q59 59 59 149q0 92 -65 154q-66 59 -228 59h-309v-803zM610 750v290h172q100 0 160 -30q57 -27 57 -109 q0 -74 -51 -113q-47 -39 -190 -38h-148z" />
<glyph unicode="&#xaf;" d="M68 1171h544v105h-544v-105z" />
<glyph unicode="&#xb0;" horiz-adv-x="819" d="M125 1128q0 -117 84 -200.5t203 -83.5q117 0 200.5 83.5t83.5 202.5q0 117 -84 201t-202 84q-117 0 -201 -84t-84 -203zM207 1130q0 84 59.5 143.5t145.5 59.5q84 0 143 -59.5t59 -145.5q0 -84 -59 -143t-145 -59q-84 0 -143.5 59t-59.5 145z" />
<glyph unicode="&#xb1;" horiz-adv-x="1351" d="M139 0h1073v90h-1073v-90zM139 674h492v-492h90v492h491v90h-491v491h-90v-491h-492v-90z" />
<glyph unicode="&#xb2;" horiz-adv-x="641" d="M61 1284q23 16 45.5 31.5t47.5 25.5q49 23 110 23q86 0 143.5 -45t57.5 -115q0 -63 -33 -123q-16 -31 -36.5 -61.5t-45.5 -61.5q-35 -41 -67.5 -74.5t-65.5 -62t-68.5 -60.5t-76.5 -67v-14h546v49h-415q29 27 55.5 53.5t52.5 53.5q25 27 49.5 52t47.5 56q20 23 40.5 50.5 t43.5 66.5q41 78 40 143q0 90 -75 152q-76 59 -187 59q-72 0 -129 -22q-53 -23 -80 -43v-66z" />
<glyph unicode="&#xb3;" horiz-adv-x="641" d="M82 707q27 -10 82 -25q57 -12 121 -12q117 0 194 59q76 58 76 156q0 63 -47 110q-49 49 -129 70q88 25 127 70q37 45 37 96q0 80 -74 133q-70 51 -184 51q-80 0 -129 -18q-47 -14 -68 -29v-51q10 4 26.5 11t41.5 18q45 18 118 18q86 0 146 -41q57 -39 57 -96 q0 -61 -63.5 -100.5t-149.5 -39.5h-8v-51h14q98 0 160 -45q57 -43 57 -114q0 -70 -59 -113t-149 -43q-68 0 -119 12q-25 6 -44.5 12.5t-33.5 10.5v-49z" />
<glyph unicode="&#xb4;" d="M313 1067h66l313 319h-166z" />
<glyph unicode="&#xb5;" horiz-adv-x="1138" d="M207 -362h98v466q39 -55 107 -88q74 -35 159 -34q72 0 144 41q70 39 129 137v-160h98v920h-98v-644q-33 -66 -113 -133q-78 -66 -178 -65q-119 0 -184 78q-63 76 -64 217v547h-98v-1282z" />
<glyph unicode="&#xb6;" horiz-adv-x="1331" d="M100 1044q0 -195 123 -307q119 -113 328 -112v-1033h131v1735h264v-1735h131v1735h195v139h-697q-215 0 -346 -114q-129 -115 -129 -308z" />
<glyph unicode="&#xb7;" horiz-adv-x="575" d="M115 608h131v201h-131v-201z" />
<glyph unicode="&#xb8;" d="M217 -348l92 -10q88 0 144 43q55 38 55 108q0 55 -37 96q-37 39 -90 39l25 88h-62l-43 -143q61 0 94 -20.5t33 -61.5t-35 -59q-39 -20 -98 -19l-68 4z" />
<glyph unicode="&#xb9;" horiz-adv-x="641" d="M285 1407l2 -727h67l-2 727h-67z" />
<glyph unicode="&#xba;" horiz-adv-x="724" d="M53 1124q0 -127 88 -208.5t221 -81.5q131 0 222 84q88 81 88 206q0 127 -88 209q-92 82 -222 82q-131 0 -221 -84q-88 -82 -88 -207zM121 1124q0 94 72 166q70 68 169 68q100 0 170 -70q70 -68 70 -164t-70 -166q-72 -68 -170 -67q-102 0 -172 70q-70 68 -69 163z" />
<glyph unicode="&#xbb;" horiz-adv-x="1024" d="M37 12h125l387 461l-383 461h-125l383 -461zM471 12h125l387 461l-383 461h-125l383 -461z" />
<glyph unicode="&#xbc;" horiz-adv-x="1705" d="M127 -55h80l1077 1470h-82zM297 1407l2 -727h68l-2 727h-68zM819 281h410v-281h65v281h123v43h-123v411h-26l-449 -436v-18zM911 324l318 309v-309h-318z" />
<glyph unicode="&#xbd;" horiz-adv-x="1705" d="M127 -55h80l1077 1470h-82zM297 1407l2 -727h68l-2 727h-68zM971 604q23 16 45 31.5t47 26.5q49 23 111 22q86 0 143 -45t57 -115q0 -63 -33 -123q-16 -31 -36.5 -61.5t-44.5 -60.5q-35 -41 -68 -75t-65.5 -62.5t-68.5 -60.5t-77 -67v-14h547v49h-416q29 27 55.5 53.5 l53.5 53.5q25 27 49 52t47 56q20 23 40.5 50.5t43.5 66.5q41 78 41 143q0 90 -76 152q-76 59 -186 59q-72 0 -129 -22q-53 -23 -80 -43v-66z" />
<glyph unicode="&#xbe;" horiz-adv-x="1705" d="M119 707q27 -10 82 -25q57 -12 121 -12q117 0 194 59q76 58 76 156q0 63 -47 110q-49 49 -129 70q88 25 127 70q37 45 37 96q0 80 -74 133q-70 51 -184 51q-80 0 -129 -18q-47 -14 -68 -29v-51q10 4 26.5 11t41.5 18q45 18 118 18q86 0 146 -41q57 -39 57 -96 q0 -61 -63.5 -100.5t-149.5 -39.5h-8v-51h14q98 0 160 -45q57 -43 57 -114q0 -70 -59 -113t-150 -43q-68 0 -118 12q-25 6 -44.5 12.5t-33.5 10.5v-49zM231 -55h80l1078 1470h-82zM936 281h410v-281h65v281h123v43h-123v411h-27l-448 -436v-18zM1028 324l318 309v-309h-318z " />
<glyph unicode="&#xbf;" horiz-adv-x="575" d="M55 -160q0 -117 64 -205q63 -86 194 -86q49 0 84 15q10 4 35 15t42.5 19.5t19.5 10.5l-35 88q-4 -2 -28.5 -15.5t-59.5 -28.5t-56 -15q-68 0 -112 57q-43 55 -43 135q0 90 41 176q39 82 110 197q49 80 70 135q16 55 16 113q0 47 -26 98q-23 47 -54 80l-34 -31 q14 -27 21 -46.5t11 -29.5q2 -10 3 -22.5t1 -24.5q0 -47 -14 -90q-14 -45 -61 -113q-102 -147 -146 -231q-43 -86 -43 -201zM242 768h133v199h-133v-199z" />
<glyph unicode="&#xc0;" horiz-adv-x="1366" d="M8 0h113l221 483h682l221 -483h111l-643 1407h-60zM383 573l299 658l301 -658h-600zM500 1833l313 -320h66l-213 320h-166z" />
<glyph unicode="&#xc1;" horiz-adv-x="1366" d="M8 0h113l221 483h682l221 -483h111l-643 1407h-60zM383 573l299 658l301 -658h-600zM655 1513h66l313 320h-166z" />
<glyph unicode="&#xc2;" horiz-adv-x="1366" d="M8 0h113l221 483h682l221 -483h111l-643 1407h-60zM383 573l299 658l301 -658h-600zM401 1495h78l203 221l205 -221h78l-224 336h-118z" />
<glyph unicode="&#xc3;" horiz-adv-x="1366" d="M8 0h113l221 483h682l221 -483h111l-643 1407h-60zM348 1569h66q6 57 32.5 77.5t53.5 20.5q49 0 166 -51q117 -49 182 -49q88 0 127 57q41 59 41 137h-64q-10 -57 -34 -78q-23 -20 -52 -20q-51 0 -168 51q-117 49 -182 49q-84 0 -127 -57q-41 -59 -41 -137zM383 573 l299 658l301 -658h-600z" />
<glyph unicode="&#xc4;" horiz-adv-x="1366" d="M8 0h113l221 483h682l221 -483h111l-643 1407h-60zM383 573l299 658l301 -658h-600zM475 1589h139v140h-139v-140zM756 1589h139v140h-139v-140z" />
<glyph unicode="&#xc5;" horiz-adv-x="1366" d="M8 0h113l221 483h682l221 -483h111l-643 1407h-60zM383 573l299 658l301 -658h-600zM508 1659q0 -74 51 -125t125 -51q76 0 127 51t51 125q0 72 -53 125q-51 51 -125 51t-125 -51t-51 -125zM563 1659q0 51 35 86t86 35q49 0 88 -35q35 -35 35 -86q0 -53 -37 -86 q-35 -35 -86 -35t-86 35t-35 86z" />
<glyph unicode="&#xc6;" horiz-adv-x="1771" d="M-29 0h117l412 659h409v-659h779v90h-670v567l637 2v89h-637v559h655v90h-829zM559 750l350 569v-569h-350z" />
<glyph unicode="&#xc7;" horiz-adv-x="1386" d="M100 698q0 -317 215 -516q174 -162 420 -192l-35 -117q61 0 94 -20.5t33 -61.5t-34 -59q-39 -20 -99 -19l-67 4l-11 -65l93 -10q88 0 143 43q55 38 55 108q0 55 -37 96q-37 39 -90 39l17 56q16 -2 32 -2h33q121 0 250 38q66 20 124 43t105 52v112q-47 -27 -101 -52 t-120 -48q-127 -45 -276 -45q-279 0 -453 172t-174 444q0 264 178 441q176 176 443 176q135 0 258 -39q131 -41 229 -98v120q-102 53 -231 86q-129 31 -238 31q-324 0 -541 -205q-215 -207 -215 -512z" />
<glyph unicode="&#xc8;" horiz-adv-x="1003" d="M164 0h778v90h-670v567l637 2v89h-637v559h656v90h-764v-1397zM344 1833l313 -320h66l-213 320h-166z" />
<glyph unicode="&#xc9;" horiz-adv-x="1003" d="M164 0h778v90h-670v567l637 2v89h-637v559h656v90h-764v-1397zM500 1513h65l314 320h-166z" />
<glyph unicode="&#xca;" horiz-adv-x="1003" d="M164 0h778v90h-670v567l637 2v89h-637v559h656v90h-764v-1397zM246 1495h78l202 221l205 -221h78l-223 336h-119z" />
<glyph unicode="&#xcb;" horiz-adv-x="1003" d="M164 0h778v90h-670v567l637 2v89h-637v559h656v90h-764v-1397zM319 1589h140v140h-140v-140zM600 1589h139v140h-139v-140z" />
<glyph unicode="&#xcc;" horiz-adv-x="425" d="M33 1833l313 -320h66l-213 320h-166zM160 0h106v1397h-106v-1397z" />
<glyph unicode="&#xcd;" horiz-adv-x="425" d="M160 0h106v1397h-106v-1397zM188 1513h66l313 320h-166z" />
<glyph unicode="&#xce;" horiz-adv-x="425" d="M-66 1495h78l203 221l205 -221h78l-224 336h-118zM160 0h106v1397h-106v-1397z" />
<glyph unicode="&#xcf;" horiz-adv-x="425" d="M8 1589h139v140h-139v-140zM160 0h106v1397h-106v-1397zM289 1589h139v140h-139v-140z" />
<glyph unicode="&#xd0;" horiz-adv-x="1515" d="M-47 655h209v-655h512q348 0 542.5 194.5t194.5 501.5q0 326 -203 514q-199 182 -549 187l-497 6v-658h-209v-90zM270 90v565h453v90h-453v562h379q293 0 469 -168q176 -171 176 -443q0 -274 -178 -440t-471 -166h-375z" />
<glyph unicode="&#xd1;" horiz-adv-x="1579" d="M160 0h108v1221l1061 -1221h92v1397h-108v-1225q-133 160 -264 311.5t-266.5 301t-266.5 301t-264 311.5h-92v-1397zM463 1569h65q6 57 33 77.5t53 20.5q49 0 166 -51q117 -49 183 -49q88 0 127 57q40 59 40 137h-63q-10 -57 -35 -78q-23 -20 -51 -20q-51 0 -168 51 q-117 49 -182 49q-84 0 -127 -57q-41 -59 -41 -137z" />
<glyph unicode="&#xd2;" horiz-adv-x="1685" d="M104 698q0 -305 213 -512q211 -205 527 -204q313 0 526 206.5t213 509.5q0 305 -213 512q-215 205 -526 205q-315 0 -529 -207q-211 -205 -211 -510zM221 698q0 254 182 437q180 180 441 180q260 0 440 -180q182 -183 182 -437t-182 -436q-180 -180 -440 -180 q-262 0 -442.5 180t-180.5 436zM659 1833l314 -320h65l-213 320h-166z" />
<glyph unicode="&#xd3;" horiz-adv-x="1685" d="M104 698q0 -305 213 -512q211 -205 527 -204q313 0 526 206.5t213 509.5q0 305 -213 512q-215 205 -526 205q-315 0 -529 -207q-211 -205 -211 -510zM221 698q0 254 182 437q180 180 441 180q260 0 440 -180q182 -183 182 -437t-182 -436q-180 -180 -440 -180 q-262 0 -442.5 180t-180.5 436zM815 1513h66l313 320h-166z" />
<glyph unicode="&#xd4;" horiz-adv-x="1685" d="M104 698q0 -305 213 -512q211 -205 527 -204q313 0 526 206.5t213 509.5q0 305 -213 512q-215 205 -526 205q-315 0 -529 -207q-211 -205 -211 -510zM221 698q0 254 182 437q180 180 441 180q260 0 440 -180q182 -183 182 -437t-182 -436q-180 -180 -440 -180 q-262 0 -442.5 180t-180.5 436zM561 1495h78l203 221l205 -221h77l-223 336h-119z" />
<glyph unicode="&#xd5;" horiz-adv-x="1685" d="M104 698q0 -305 213 -512q211 -205 527 -204q313 0 526 206.5t213 509.5q0 305 -213 512q-215 205 -526 205q-315 0 -529 -207q-211 -205 -211 -510zM221 698q0 254 182 437q180 180 441 180q260 0 440 -180q182 -183 182 -437t-182 -436q-180 -180 -440 -180 q-262 0 -442.5 180t-180.5 436zM508 1569h65q6 57 33 77.5t53 20.5q49 0 166 -51q117 -49 183 -49q88 0 127 57q41 59 41 137h-64q-10 -57 -35 -78q-23 -20 -51 -20q-51 0 -168 51q-117 49 -182 49q-84 0 -127 -57q-41 -59 -41 -137z" />
<glyph unicode="&#xd6;" horiz-adv-x="1685" d="M104 698q0 -305 213 -512q211 -205 527 -204q313 0 526 206.5t213 509.5q0 305 -213 512q-215 205 -526 205q-315 0 -529 -207q-211 -205 -211 -510zM221 698q0 254 182 437q180 180 441 180q260 0 440 -180q182 -183 182 -437t-182 -436q-180 -180 -440 -180 q-262 0 -442.5 180t-180.5 436zM635 1589h139v140h-139v-140zM915 1589h140v140h-140v-140z" />
<glyph unicode="&#xd7;" horiz-adv-x="1351" d="M264 373l66 -66l346 346l346 -346l65 66l-346 346l346 346l-65 65l-346 -346l-346 346l-66 -65l346 -346z" />
<glyph unicode="&#xd8;" horiz-adv-x="1685" d="M104 698q0 -301 211 -512l9 -8l-131 -145l75 -53l127 141q182 -139 449 -139q313 0 526 206.5t213 509.5t-211 508l135 150l-75 53l-129 -143q-186 150 -459 149q-315 0 -529 -207q-211 -205 -211 -510zM221 698q0 254 182 437q180 180 441 180q227 0 385 -131l-830 -920 q-178 178 -178 434zM469 203l827 919q170 -176 170 -424q0 -254 -182 -436q-180 -180 -440 -180q-217 0 -375 121z" />
<glyph unicode="&#xd9;" horiz-adv-x="1429" d="M131 596q0 -270 164 -444q164 -170 422 -170t422 176q161 178 161 448v791h-108v-783q0 -244 -129 -387q-127 -145 -344 -145q-219 0 -350 141q-129 141 -129 381v793h-109v-801zM530 1833l314 -320h65l-213 320h-166z" />
<glyph unicode="&#xda;" horiz-adv-x="1429" d="M131 596q0 -270 164 -444q164 -170 422 -170t422 176q161 178 161 448v791h-108v-783q0 -244 -129 -387q-127 -145 -344 -145q-219 0 -350 141q-129 141 -129 381v793h-109v-801zM686 1513h66l313 320h-166z" />
<glyph unicode="&#xdb;" horiz-adv-x="1429" d="M131 596q0 -270 164 -444q164 -170 422 -170t422 176q161 178 161 448v791h-108v-783q0 -244 -129 -387q-127 -145 -344 -145q-219 0 -350 141q-129 141 -129 381v793h-109v-801zM432 1495h78l203 221l205 -221h77l-223 336h-119z" />
<glyph unicode="&#xdc;" horiz-adv-x="1429" d="M131 596q0 -270 164 -444q164 -170 422 -170t422 176q161 178 161 448v791h-108v-783q0 -244 -129 -387q-127 -145 -344 -145q-219 0 -350 141q-129 141 -129 381v793h-109v-801zM506 1589h139v140h-139v-140zM786 1589h140v140h-140v-140z" />
<glyph unicode="&#xdd;" horiz-adv-x="1193" d="M0 1397l543 -647v-750h108v750l543 647h-131l-465 -553l-467 553h-131zM567 1513h66l313 320h-166z" />
<glyph unicode="&#xde;" horiz-adv-x="1044" d="M160 0h108v328h277q213 0 333.5 96t120.5 274q0 182 -120 279q-123 94 -338 94h-273v326h-108v-1397zM268 420v561h281q156 0 246 -76q90 -74 90 -205q0 -139 -92 -208q-90 -72 -256 -72h-269z" />
<glyph unicode="&#xdf;" horiz-adv-x="1024" d="M127 0h98v918q0 258 76 335q74 80 193 80q117 0 198 -63q82 -61 82 -201q0 -106 -55 -176q-55 -72 -144 -72h-16v-92q156 -18 217 -108q59 -90 60 -213q0 -139 -70 -234q-68 -96 -195 -96q-39 0 -75 10q-16 4 -28.5 7t-21.5 7v-102q20 -6 50 -12q27 -6 67 -6 q174 0 276.5 127t102.5 299q0 154 -72 243q-74 92 -178 125q102 43 146 135q41 94 41 166q0 150 -106.5 244t-272.5 94q-164 0 -268.5 -104.5t-104.5 -323.5v-987z" />
<glyph unicode="&#xe0;" horiz-adv-x="989" d="M76 434q0 -199 125 -325q127 -127 319 -127q88 0 158 20q76 20 137 49v-55h98v924h-96v-64q-66 39 -139 62q-68 20 -137 20q-205 0 -336 -141q-129 -141 -129 -363zM180 436q0 176 108.5 291t272.5 115q86 0 158 -31q72 -33 98 -51v-606q-45 -29 -117 -58 q-68 -25 -161 -24q-162 0 -260 100q-98 98 -99 264zM252 1386l313 -319h66l-213 319h-166z" />
<glyph unicode="&#xe1;" horiz-adv-x="970" d="M76 434q0 -199 125 -325q127 -127 319 -127q88 0 158 20q76 20 137 49v-55h98v924h-96v-64q-66 39 -139 62q-68 20 -137 20q-205 0 -336 -141q-129 -141 -129 -363zM180 436q0 176 108.5 291t272.5 115q86 0 158 -31q72 -33 98 -51v-606q-45 -29 -117 -58 q-68 -25 -161 -24q-162 0 -260 100q-98 98 -99 264zM408 1067h65l313 319h-165z" />
<glyph unicode="&#xe2;" horiz-adv-x="1009" d="M76 434q0 -199 125 -325q127 -127 319 -127q88 0 158 20q76 20 137 49v-55h98v924h-96v-64q-66 39 -139 62q-68 20 -137 20q-205 0 -336 -141q-129 -141 -129 -363zM180 436q0 176 108.5 291t272.5 115q86 0 158 -31q72 -33 98 -51v-606q-45 -29 -117 -58 q-68 -25 -161 -24q-162 0 -260 100q-98 98 -99 264zM236 1049h77l203 221l205 -221h78l-224 335h-118z" />
<glyph unicode="&#xe3;" horiz-adv-x="987" d="M76 434q0 -199 125 -325q127 -127 319 -127q88 0 158 20q76 20 137 49v-55h98v924h-96v-64q-66 39 -139 62q-68 20 -137 20q-205 0 -336 -141q-129 -141 -129 -363zM180 436q0 176 108.5 291t272.5 115q86 0 158 -31q72 -33 98 -51v-606q-45 -29 -117 -58 q-68 -25 -161 -24q-162 0 -260 100q-98 98 -99 264zM182 1122h66q6 57 32.5 78t53.5 21q49 0 166 -52q117 -49 182 -49q88 0 127 58q41 59 41 137h-64q-10 -57 -34 -78q-23 -20 -52 -20q-51 0 -168 51q-117 49 -182 49q-84 0 -127 -57q-41 -59 -41 -138z" />
<glyph unicode="&#xe4;" horiz-adv-x="1003" d="M76 434q0 -199 125 -325q127 -127 319 -127q88 0 158 20q76 20 137 49v-55h98v924h-96v-64q-66 39 -139 62q-68 20 -137 20q-205 0 -336 -141q-129 -141 -129 -363zM180 436q0 176 108.5 291t272.5 115q86 0 158 -31q72 -33 98 -51v-606q-45 -29 -117 -58 q-68 -25 -161 -24q-162 0 -260 100q-98 98 -99 264zM309 1143h140v139h-140v-139zM590 1143h139v139h-139v-139z" />
<glyph unicode="&#xe5;" horiz-adv-x="874" d="M76 434q0 -199 125 -325q127 -127 319 -127q88 0 158 20q76 20 137 49v-55h98v924h-96v-64q-66 39 -139 62q-68 20 -137 20q-205 0 -336 -141q-129 -141 -129 -363zM180 436q0 176 108.5 291t272.5 115q86 0 158 -31q72 -33 98 -51v-606q-45 -29 -117 -58 q-68 -25 -161 -24q-162 0 -260 100q-98 98 -99 264zM362 1212q0 -74 51.5 -125t125.5 -51q76 0 127 51t51 125q0 72 -53 125q-51 51 -125 52q-74 0 -125.5 -51.5t-51.5 -125.5zM418 1212q0 51 34.5 86t86.5 35q49 0 88 -35q35 -35 35 -86q0 -53 -37 -86q-35 -35 -86 -34 q-51 0 -86 34.5t-35 85.5z" />
<glyph unicode="&#xe6;" horiz-adv-x="1536" d="M35 434q0 -199 125 -325q127 -127 319 -127q88 0 158 20q76 20 137 49v-55h98v127q23 -25 60 -58.5t63 -46.5q70 -37 158 -36q102 0 188 41q41 20 74 40.5t58 40.5v111q-18 -18 -47 -39.5t-68 -48.5q-78 -49 -170 -49q-139 0 -230 108q-68 76 -86 187v121h619 q0 195 -100.5 319.5t-257.5 124.5q-88 0 -154 -35q-12 -6 -27.5 -18.5t-30 -26.5t-27.5 -27.5t-22 -21.5v111h-96v-64q-66 39 -139 62q-68 20 -137 20q-205 0 -336 -141q-129 -141 -129 -363zM139 436q0 176 108.5 291t272.5 115q86 0 158 -31q72 -33 98 -51v-606 q-45 -29 -117 -58q-68 -25 -161 -24q-162 0 -260 100q-98 98 -99 264zM877 573q20 94 63 160q74 109 197 109q102 0 161 -72q58 -72 72 -197h-493z" />
<glyph unicode="&#xe7;" horiz-adv-x="854" d="M86 459q0 -219 123 -348q88 -94 227 -119l-35 -119q61 0 94 -20.5t33 -61.5t-34 -59q-39 -20 -99 -19l-67 4l-11 -65l93 -10q88 0 143 43q55 38 55 108q0 55 -37 96q-37 39 -90 39l17 56q10 -2 22 -2h27q78 0 149 18q35 10 58.5 17.5t38.5 11.5v102q-37 -16 -101 -35 q-66 -18 -141 -18q-170 0 -264 104q-96 102 -97 277q0 168 97 276q94 106 252 107q82 0 137 -21q29 -10 54.5 -18t45.5 -19v109q-29 10 -56.5 17.5t-55.5 15.5q-59 12 -127 12q-207 0 -330 -141q-121 -139 -121 -338z" />
<glyph unicode="&#xe8;" horiz-adv-x="980" d="M82 473q0 -215 133 -354q131 -137 340 -137q109 0 201 41q45 20 78.5 40.5t60.5 40.5v111q-20 -18 -53 -39.5t-78 -48.5q-90 -49 -201 -49q-162 0 -270 108q-109 104 -109 267v22t2 19h727q0 193 -114 319q-113 125 -293 125q-186 0 -305 -135q-119 -133 -119 -330z M197 573q29 100 75 160q88 109 236 109q123 0 194 -72q68 -68 91 -197h-596zM307 1386l314 -319h65l-213 319h-166z" />
<glyph unicode="&#xe9;" horiz-adv-x="980" d="M82 473q0 -215 133 -354q131 -137 340 -137q109 0 201 41q45 20 78.5 40.5t60.5 40.5v111q-20 -18 -53 -39.5t-78 -48.5q-90 -49 -201 -49q-162 0 -270 108q-109 104 -109 267v22t2 19h727q0 193 -114 319q-113 125 -293 125q-186 0 -305 -135q-119 -133 -119 -330z M197 573q29 100 75 160q88 109 236 109q123 0 194 -72q68 -68 91 -197h-596zM463 1067h65l314 319h-166z" />
<glyph unicode="&#xea;" horiz-adv-x="980" d="M82 473q0 -215 133 -354q131 -137 340 -137q109 0 201 41q45 20 78.5 40.5t60.5 40.5v111q-20 -18 -53 -39.5t-78 -48.5q-90 -49 -201 -49q-162 0 -270 108q-109 104 -109 267v22t2 19h727q0 193 -114 319q-113 125 -293 125q-186 0 -305 -135q-119 -133 -119 -330z M197 573q29 100 75 160q88 109 236 109q123 0 194 -72q68 -68 91 -197h-596zM209 1049h78l202 221l205 -221h78l-223 335h-119z" />
<glyph unicode="&#xeb;" horiz-adv-x="980" d="M82 473q0 -215 133 -354q131 -137 340 -137q109 0 201 41q45 20 78.5 40.5t60.5 40.5v111q-20 -18 -53 -39.5t-78 -48.5q-90 -49 -201 -49q-162 0 -270 108q-109 104 -109 267v22t2 19h727q0 193 -114 319q-113 125 -293 125q-186 0 -305 -135q-119 -133 -119 -330z M197 573q29 100 75 160q88 109 236 109q123 0 194 -72q68 -68 91 -197h-596zM283 1143h139v139h-139v-139zM563 1143h139v139h-139v-139z" />
<glyph unicode="&#xec;" horiz-adv-x="385" d="M8 1386l314 -319h65l-213 319h-166zM143 0h99v920h-99v-920z" />
<glyph unicode="&#xed;" horiz-adv-x="385" d="M82 1067h65l314 319h-166zM143 0h99v920h-99v-920z" />
<glyph unicode="&#xee;" horiz-adv-x="385" d="M-90 1049h78l202 221l205 -221h78l-223 335h-119zM143 0h99v920h-99v-920z" />
<glyph unicode="&#xef;" horiz-adv-x="385" d="M-16 1143h139v139h-139v-139zM143 0h99v920h-99v-920zM264 1143h139v139h-139v-139z" />
<glyph unicode="&#xf0;" horiz-adv-x="1144" d="M78 455q0 -203 143 -340q143 -135 361 -135q217 0 356 147q135 148 135 381q0 303 -162 539q-29 41 -66.5 82.5t-90.5 89.5l235 110l-33 68l-270 -127q-86 68 -242 125l-36 -70q61 -29 107 -54.5t75 -45.5l-256 -119l31 -68l297 138q78 -61 108 -99q117 -125 176 -305 q-84 88 -172 129q-90 37 -190 37q-221 0 -365 -137q-141 -139 -141 -346zM172 453q0 168 115 286q113 117 291 117q172 0 282 -111q109 -112 109 -276q0 -178 -109 -293q-106 -113 -280 -113q-172 0 -291 113q-117 113 -117 277z" />
<glyph unicode="&#xf1;" horiz-adv-x="1003" d="M127 0h98v649q51 78 119 135q70 57 182 58q123 0 189 -84q63 -86 63 -234v-524h99v555q0 180 -95 281q-96 102 -256 102q-92 0 -164 -41q-70 -39 -139 -145v168h-96v-920zM170 1122h66q6 57 32.5 78t53.5 21q49 0 165 -52q117 -49 183 -49q88 0 127 58q41 59 41 137h-64 q-10 -57 -35 -78q-23 -20 -51 -20q-51 0 -168 51q-117 49 -182 49q-84 0 -127 -57q-41 -59 -41 -138z" />
<glyph unicode="&#xf2;" horiz-adv-x="1110" d="M86 459q0 -203 135 -340q131 -137 334 -137q201 0 336 137q133 139 133 340q0 203 -135 342q-131 137 -334 137q-201 0 -336 -137q-133 -139 -133 -342zM190 459q0 160 107 272q106 111 258 111t258 -113q107 -108 107 -270q0 -158 -107 -271q-109 -111 -258 -110 q-152 0 -258 112q-106 109 -107 269zM373 1386l313 -319h66l-213 319h-166z" />
<glyph unicode="&#xf3;" horiz-adv-x="1110" d="M86 459q0 -203 135 -340q131 -137 334 -137q201 0 336 137q133 139 133 340q0 203 -135 342q-131 137 -334 137q-201 0 -336 -137q-133 -139 -133 -342zM190 459q0 160 107 272q106 111 258 111t258 -113q107 -108 107 -270q0 -158 -107 -271q-109 -111 -258 -110 q-152 0 -258 112q-106 109 -107 269zM528 1067h66l313 319h-166z" />
<glyph unicode="&#xf4;" horiz-adv-x="1110" d="M86 459q0 -203 135 -340q131 -137 334 -137q201 0 336 137q133 139 133 340q0 203 -135 342q-131 137 -334 137q-201 0 -336 -137q-133 -139 -133 -342zM190 459q0 160 107 272q106 111 258 111t258 -113q107 -108 107 -270q0 -158 -107 -271q-109 -111 -258 -110 q-152 0 -258 112q-106 109 -107 269zM274 1049h78l203 221l205 -221h78l-224 335h-118z" />
<glyph unicode="&#xf5;" horiz-adv-x="1110" d="M86 459q0 -203 135 -340q131 -137 334 -137q201 0 336 137q133 139 133 340q0 203 -135 342q-131 137 -334 137q-201 0 -336 -137q-133 -139 -133 -342zM190 459q0 160 107 272q106 111 258 111t258 -113q107 -108 107 -270q0 -158 -107 -271q-109 -111 -258 -110 q-152 0 -258 112q-106 109 -107 269zM221 1122h66q6 57 32.5 78t53.5 21q49 0 166 -52q117 -49 182 -49q88 0 127 58q41 59 41 137h-64q-10 -57 -34 -78q-23 -20 -52 -20q-51 0 -168 51q-117 49 -182 49q-84 0 -127 -57q-41 -59 -41 -138z" />
<glyph unicode="&#xf6;" horiz-adv-x="1110" d="M86 459q0 -203 135 -340q131 -137 334 -137q201 0 336 137q133 139 133 340q0 203 -135 342q-131 137 -334 137q-201 0 -336 -137q-133 -139 -133 -342zM190 459q0 160 107 272q106 111 258 111t258 -113q107 -108 107 -270q0 -158 -107 -271q-109 -111 -258 -110 q-152 0 -258 112q-106 109 -107 269zM348 1143h139v139h-139v-139zM629 1143h139v139h-139v-139z" />
<glyph unicode="&#xf7;" horiz-adv-x="1351" d="M139 674h1073v90h-1073v-90zM621 299h110v172h-110v-172zM621 967h110v172h-110v-172z" />
<glyph unicode="&#xf8;" horiz-adv-x="1110" d="M86 459q0 -201 125 -332l-121 -139l64 -49l116 135q113 -92 285 -92q201 0 336 137q133 139 133 340t-127 334l111 127l-64 51l-106 -123q-115 90 -283 90q-201 0 -336 -137q-133 -139 -133 -342zM190 459q0 160 107 272q106 111 258 111q125 0 215 -72l-489 -563 q-90 106 -91 252zM338 152l489 561q93 -104 93 -254q0 -158 -107 -271q-109 -111 -258 -110q-129 0 -217 74z" />
<glyph unicode="&#xf9;" horiz-adv-x="1003" d="M127 352q0 -180 96 -276q94 -94 269 -94q76 0 151 41q72 39 135 137v-160h99v920h-99v-644q-35 -68 -114 -133q-78 -66 -185 -65q-121 0 -188 78q-66 78 -66 217v547h-98v-568zM317 1386l314 -319h65l-213 319h-166z" />
<glyph unicode="&#xfa;" horiz-adv-x="1003" d="M127 352q0 -180 96 -276q94 -94 269 -94q76 0 151 41q72 39 135 137v-160h99v920h-99v-644q-35 -68 -114 -133q-78 -66 -185 -65q-121 0 -188 78q-66 78 -66 217v547h-98v-568zM473 1067h66l313 319h-166z" />
<glyph unicode="&#xfb;" horiz-adv-x="1003" d="M127 352q0 -180 96 -276q94 -94 269 -94q76 0 151 41q72 39 135 137v-160h99v920h-99v-644q-35 -68 -114 -133q-78 -66 -185 -65q-121 0 -188 78q-66 78 -66 217v547h-98v-568zM219 1049h78l203 221l205 -221h77l-223 335h-119z" />
<glyph unicode="&#xfc;" horiz-adv-x="1003" d="M127 352q0 -180 96 -276q94 -94 269 -94q76 0 151 41q72 39 135 137v-160h99v920h-99v-644q-35 -68 -114 -133q-78 -66 -185 -65q-121 0 -188 78q-66 78 -66 217v547h-98v-568zM293 1143h139v139h-139v-139zM573 1143h140v139h-140v-139z" />
<glyph unicode="&#xfd;" horiz-adv-x="854" d="M10 920l389 -744l-321 -647h100l686 1391h-100l-315 -644l-332 644h-107zM397 1067h66l313 319h-166z" />
<glyph unicode="&#xfe;" horiz-adv-x="1044" d="M129 -471h98v522q35 -16 69 -29.5t69 -23.5q72 -16 149 -16q184 0 315.5 143t131.5 336q0 211 -132 344q-133 133 -335 133q-66 0 -136 -18q-72 -18 -131 -52v529h-98v-1868zM227 145v631q14 8 37 18.5t55 22.5q61 25 150 25q164 0 274 -111q109 -108 109 -272 q0 -166 -102 -275q-100 -106 -269 -106q-88 0 -151 24q-59 20 -103 43z" />
<glyph unicode="&#xff;" horiz-adv-x="854" d="M10 920l389 -744l-321 -647h100l686 1391h-100l-315 -644l-332 644h-107zM217 1143h139v139h-139v-139zM498 1143h139v139h-139v-139z" />
<glyph unicode="&#x152;" horiz-adv-x="1835" d="M84 707q0 -309 209 -508q205 -199 526 -199h940v90h-676v567l643 2v89h-643v559h662v90h-930q-311 0 -522 -199q-209 -197 -209 -491zM201 698q0 258 182 435q180 174 453 174h139v-1217h-133q-279 0 -459 172q-182 172 -182 436z" />
<glyph unicode="&#x153;" horiz-adv-x="1705" d="M84 459q0 -201 127 -340q125 -137 313 -137q139 0 241.5 59t164.5 158q51 -127 147 -172q92 -45 211 -45q98 0 185 41q41 20 72.5 40.5t53.5 40.5v111q-18 -18 -46.5 -39.5t-67.5 -48.5q-78 -49 -172 -49q-139 0 -236 108q-92 106 -92 267v22t2 19h631q0 193 -96 319 q-94 125 -248 125q-115 0 -197 -45q-82 -43 -155 -150q-72 104 -164 150q-88 45 -228 45q-195 0 -319 -137q-127 -139 -127 -342zM188 459q0 160 101 272q100 111 246 111q143 0 243 -113q101 -108 101 -270q0 -158 -101 -271q-102 -111 -243 -110q-145 0 -246 112 q-100 109 -101 269zM995 573q23 100 64 160q72 109 201 109q104 0 163 -72q58 -72 74 -197h-502z" />
<glyph unicode="&#x178;" horiz-adv-x="1193" d="M0 1397l543 -647v-750h108v750l543 647h-131l-465 -553l-467 553h-131zM387 1589h139v140h-139v-140zM668 1589h139v140h-139v-140z" />
<glyph unicode="&#x2c6;" d="M59 1049h78l203 221l205 -221h78l-224 335h-118z" />
<glyph unicode="&#x2dc;" d="M6 1122h66q6 57 32.5 78t53.5 21q49 0 166 -52q117 -49 182 -49q88 0 127 58q41 59 41 137h-64q-10 -57 -35 -78q-23 -20 -51 -20q-51 0 -168 51q-117 49 -182 49q-84 0 -127 -57q-41 -59 -41 -138z" />
<glyph unicode="&#x2000;" horiz-adv-x="917" />
<glyph unicode="&#x2001;" horiz-adv-x="1835" />
<glyph unicode="&#x2002;" horiz-adv-x="917" />
<glyph unicode="&#x2003;" horiz-adv-x="1835" />
<glyph unicode="&#x2004;" horiz-adv-x="611" />
<glyph unicode="&#x2005;" horiz-adv-x="458" />
<glyph unicode="&#x2006;" horiz-adv-x="305" />
<glyph unicode="&#x2007;" horiz-adv-x="305" />
<glyph unicode="&#x2008;" horiz-adv-x="229" />
<glyph unicode="&#x2009;" horiz-adv-x="367" />
<glyph unicode="&#x200a;" horiz-adv-x="101" />
<glyph unicode="&#x2010;" horiz-adv-x="641" d="M78 463h485v96h-485v-96z" />
<glyph unicode="&#x2011;" horiz-adv-x="641" d="M78 463h485v96h-485v-96z" />
<glyph unicode="&#x2012;" horiz-adv-x="641" d="M78 463h485v96h-485v-96z" />
<glyph unicode="&#x2013;" horiz-adv-x="1024" d="M-12 479h1048v66h-1048v-66z" />
<glyph unicode="&#x2014;" horiz-adv-x="2048" d="M-12 479h2072v66h-2072v-66z" />
<glyph unicode="&#x2018;" horiz-adv-x="362" d="M115 963h133v198h-43q0 68 12 105q4 16 22.5 32.5t28.5 30.5v72q-23 -14 -54.5 -40t-53.5 -61q-45 -74 -45 -196v-141z" />
<glyph unicode="&#x2019;" horiz-adv-x="362" d="M94 963q23 14 54.5 39.5t54.5 60.5q45 74 45 197v141h-133v-199h43q0 -68 -13 -104q-4 -16 -22.5 -32.5t-28.5 -31.5v-71z" />
<glyph unicode="&#x201a;" horiz-adv-x="362" d="M115 0h43q0 -68 -13 -104q-10 -37 -30 -64v-72q23 14 44 40t44 61q45 73 45 196v142h-133v-199z" />
<glyph unicode="&#x201c;" horiz-adv-x="811" d="M115 963h133v198h-43q0 68 12 105q4 16 22.5 32.5t28.5 30.5v72q-23 -14 -54.5 -40t-53.5 -61q-45 -74 -45 -196v-141zM563 963h133v198h-43q0 68 13 105q4 16 22.5 32.5t28.5 30.5v72q-23 -14 -54.5 -40t-54.5 -61q-45 -74 -45 -196v-141z" />
<glyph unicode="&#x201d;" horiz-adv-x="811" d="M94 963q23 14 54.5 39.5t54.5 60.5q45 74 45 197v141h-133v-199h43q0 -68 -13 -104q-4 -16 -22.5 -32.5t-28.5 -31.5v-71zM543 963q23 14 54.5 39.5t53.5 60.5q45 74 45 197v141h-133v-199h43q0 -68 -12 -104q-4 -16 -22.5 -32.5t-28.5 -31.5v-71z" />
<glyph unicode="&#x201e;" horiz-adv-x="811" d="M98 -168v-72q23 14 53.5 39t53.5 60q47 71 47 198v142h-133v-199h43q0 -66 -10 -102q-6 -18 -24.5 -35t-29.5 -31zM539 -168v-72q23 14 53.5 39t52.5 60q47 71 47 198v142h-133v-199h43q0 -66 -10 -102q-6 -18 -24.5 -35t-28.5 -31z" />
<glyph unicode="&#x2022;" horiz-adv-x="1024" d="M262 698q0 -104 74 -178q72 -72 176 -71q104 0 178 73q72 72 72 176t-74 179q-72 72 -176 71q-104 0 -178 -74q-72 -72 -72 -176z" />
<glyph unicode="&#x2026;" horiz-adv-x="2048" d="M274 0h132v201h-132v-201zM956 0h131v201h-131v-201zM1638 0h131v201h-131v-201z" />
<glyph unicode="&#x202f;" horiz-adv-x="367" />
<glyph unicode="&#x2039;" horiz-adv-x="575" d="M33 473l387 -461h125l-387 461l383 461h-125z" />
<glyph unicode="&#x203a;" horiz-adv-x="575" d="M29 12h125l387 461l-383 461h-125l383 -461z" />
<glyph unicode="&#x205f;" horiz-adv-x="458" />
<glyph unicode="&#x2122;" horiz-adv-x="1925" d="M207 1315h264v-666h107v666h262v82h-633v-82zM936 649h96v672l228 -672h65l236 672v-672h106v748h-188l-183 -584l-184 584h-176v-748z" />
<glyph unicode="&#xe000;" horiz-adv-x="921" d="M0 0v922h922v-922h-922z" />
</font>
</defs>
</svg>
